{
	"asset":{
		"generator":"Khronos glTF Blender I/O v4.0.44",
		"version":"2.0"
	},
	"extensionsUsed":[
		"KHR_materials_specular",
		"KHR_materials_ior"
	],
	"scene":0,
	"scenes":[
		{
			"name":"Scene",
			"nodes":[
				0
			]
		}
	],
	"nodes":[
		{
			"mesh":0,
			"name":"Tree",
			"scale":[
				0.5,
				6,
				0.5
			],
			"translation":[
				0,
				6,
				0
			]
		}
	],
	"materials":[
		{
			"doubleSided":true,
			"extensions":{
				"KHR_materials_specular":{
					"specularFactor":0.19999998807907104
				},
				"KHR_materials_ior":{
					"ior":1
				}
			},
			"name":"bark",
			"normalTexture":{
				"index":0,
				"scale":0.75
			},
			"pbrMetallicRoughness":{
				"baseColorTexture":{
					"index":1
				},
				"metallicFactor":0.4000000059604645,
				"roughnessFactor":0.8500000238418579
			}
		},
		{
			"alphaCutoff":0.24050632119178772,
			"alphaMode":"MASK",
			"doubleSided":true,
			"extensions":{
				"KHR_materials_specular":{
					"specularFactor":0
				},
				"KHR_materials_ior":{
					"ior":1
				}
			},
			"name":"top",
			"pbrMetallicRoughness":{
				"baseColorTexture":{
					"index":2
				},
				"metallicFactor":0,
				"roughnessFactor":0.5
			}
		},
		{
			"alphaCutoff":0.5,
			"alphaMode":"MASK",
			"doubleSided":true,
			"extensions":{
				"KHR_materials_specular":{
					"specularFactor":0
				},
				"KHR_materials_ior":{
					"ior":1.4500000476837158
				}
			},
			"name":"top2",
			"pbrMetallicRoughness":{
				"baseColorTexture":{
					"index":3
				},
				"metallicFactor":0,
				"roughnessFactor":0.5
			}
		},
		{
			"alphaCutoff":0.5,
			"alphaMode":"MASK",
			"doubleSided":true,
			"extensions":{
				"KHR_materials_specular":{
					"specularFactor":0
				},
				"KHR_materials_ior":{
					"ior":1.4500000476837158
				}
			},
			"name":"branch1",
			"pbrMetallicRoughness":{
				"baseColorTexture":{
					"index":4
				},
				"metallicFactor":0,
				"roughnessFactor":0.5
			}
		}
	],
	"meshes":[
		{
			"name":"Cylinder",
			"primitives":[
				{
					"attributes":{
						"POSITION":0,
						"NORMAL":1,
						"TEXCOORD_0":2
					},
					"indices":3,
					"material":0
				},
				{
					"attributes":{
						"POSITION":4,
						"NORMAL":5,
						"TEXCOORD_0":6
					},
					"indices":7,
					"material":1
				},
				{
					"attributes":{
						"POSITION":8,
						"NORMAL":9,
						"TEXCOORD_0":10
					},
					"indices":11,
					"material":2
				},
				{
					"attributes":{
						"POSITION":12,
						"NORMAL":13,
						"TEXCOORD_0":14
					},
					"indices":15,
					"material":3
				}
			]
		}
	],
	"textures":[
		{
			"sampler":0,
			"source":0
		},
		{
			"sampler":1,
			"source":1
		},
		{
			"sampler":1,
			"source":2
		},
		{
			"sampler":1,
			"source":3
		},
		{
			"sampler":1,
			"source":4
		}
	],
	"images":[
		{
			"mimeType":"image/png",
			"name":"bark_normal.png",
			"uri":"../../Assets/Meshes/PineTree/textures/bark_normal.png"
		},
		{
			"mimeType":"image/png",
			"name":"bark.png",
			"uri":"../../Assets/Meshes/PineTree/textures/bark.png"
		},
		{
			"mimeType":"image/png",
			"name":"top",
			"uri":"../../Assets/Meshes/PineTree/textures/top_needles.png"
		},
		{
			"mimeType":"image/png",
			"name":"top2",
			"uri":"../../Assets/Meshes/PineTree/textures/top2.png"
		},
		{
			"mimeType":"image/png",
			"name":"branch1",
			"uri":"../../Assets/Meshes/PineTree/textures/branch1.png"
		}
	],
	"accessors":[
		{
			"bufferView":0,
			"componentType":5126,
			"count":50,
			"max":[
				1.9269671440124512,
				1.2037888765335083,
				1.8878639936447144
			],
			"min":[
				-1.9566179513931274,
				-0.9999999403953552,
				-1.8068944215774536
			],
			"type":"VEC3"
		},
		{
			"bufferView":1,
			"componentType":5126,
			"count":50,
			"type":"VEC3"
		},
		{
			"bufferView":2,
			"componentType":5126,
			"count":50,
			"type":"VEC2"
		},
		{
			"bufferView":3,
			"componentType":5123,
			"count":138,
			"type":"SCALAR"
		},
		{
			"bufferView":4,
			"componentType":5126,
			"count":21,
			"max":[
				1.625115156173706,
				1.209850788116455,
				1.625115156173706
			],
			"min":[
				-1.625115156173706,
				0.809402346611023,
				-1.625115156173706
			],
			"type":"VEC3"
		},
		{
			"bufferView":5,
			"componentType":5126,
			"count":21,
			"type":"VEC3"
		},
		{
			"bufferView":6,
			"componentType":5126,
			"count":21,
			"type":"VEC2"
		},
		{
			"bufferView":7,
			"componentType":5123,
			"count":66,
			"type":"SCALAR"
		},
		{
			"bufferView":8,
			"componentType":5126,
			"count":34,
			"max":[
				2.196425676345825,
				0.9347860217094421,
				2.4681172370910645
			],
			"min":[
				-2.0130155086517334,
				0.6227855682373047,
				-1.9516260623931885
			],
			"type":"VEC3"
		},
		{
			"bufferView":9,
			"componentType":5126,
			"count":34,
			"type":"VEC3"
		},
		{
			"bufferView":10,
			"componentType":5126,
			"count":34,
			"type":"VEC2"
		},
		{
			"bufferView":11,
			"componentType":5123,
			"count":120,
			"type":"SCALAR"
		},
		{
			"bufferView":12,
			"componentType":5126,
			"count":100,
			"max":[
				4.648703575134277,
				0.7121002674102783,
				5.828138828277588
			],
			"min":[
				-4.76127290725708,
				-0.0850900337100029,
				-5.228156089782715
			],
			"type":"VEC3"
		},
		{
			"bufferView":13,
			"componentType":5126,
			"count":100,
			"type":"VEC3"
		},
		{
			"bufferView":14,
			"componentType":5126,
			"count":100,
			"type":"VEC2"
		},
		{
			"bufferView":15,
			"componentType":5123,
			"count":336,
			"type":"SCALAR"
		}
	],
	"bufferViews":[
		{
			"buffer":0,
			"byteLength":600,
			"byteOffset":0,
			"target":34962
		},
		{
			"buffer":0,
			"byteLength":600,
			"byteOffset":600,
			"target":34962
		},
		{
			"buffer":0,
			"byteLength":400,
			"byteOffset":1200,
			"target":34962
		},
		{
			"buffer":0,
			"byteLength":276,
			"byteOffset":1600,
			"target":34963
		},
		{
			"buffer":0,
			"byteLength":252,
			"byteOffset":1876,
			"target":34962
		},
		{
			"buffer":0,
			"byteLength":252,
			"byteOffset":2128,
			"target":34962
		},
		{
			"buffer":0,
			"byteLength":168,
			"byteOffset":2380,
			"target":34962
		},
		{
			"buffer":0,
			"byteLength":132,
			"byteOffset":2548,
			"target":34963
		},
		{
			"buffer":0,
			"byteLength":408,
			"byteOffset":2680,
			"target":34962
		},
		{
			"buffer":0,
			"byteLength":408,
			"byteOffset":3088,
			"target":34962
		},
		{
			"buffer":0,
			"byteLength":272,
			"byteOffset":3496,
			"target":34962
		},
		{
			"buffer":0,
			"byteLength":240,
			"byteOffset":3768,
			"target":34963
		},
		{
			"buffer":0,
			"byteLength":1200,
			"byteOffset":4008,
			"target":34962
		},
		{
			"buffer":0,
			"byteLength":1200,
			"byteOffset":5208,
			"target":34962
		},
		{
			"buffer":0,
			"byteLength":800,
			"byteOffset":6408,
			"target":34962
		},
		{
			"buffer":0,
			"byteLength":672,
			"byteOffset":7208,
			"target":34963
		}
	],
	"samplers":[
		{
			"magFilter":9729,
			"minFilter":9987
		},
		{
			"magFilter":9728,
			"minFilter":9984
		}
	],
	"buffers":[
		{
			"byteLength":7880,
			"uri":"pine-1f4761f50e82b426d4e027643987f278.bin"
		}
	]
}
