{
	"asset":{
		"generator":"Khronos glTF Blender I/O v4.0.44",
		"version":"2.0"
	},
	"extensionsUsed":[
		"KHR_materials_specular",
		"KHR_materials_ior"
	],
	"scene":0,
	"scenes":[
		{
			"name":"Scene",
			"nodes":[
				0
			]
		}
	],
	"nodes":[
		{
			"mesh":0,
			"name":"Tree",
			"scale":[
				0.5,
				6,
				0.5
			],
			"translation":[
				0,
				6,
				0
			]
		}
	],
	"materials":[
		{
			"doubleSided":true,
			"extensions":{
				"KHR_materials_specular":{
					"specularFactor":0.19999998807907104
				},
				"KHR_materials_ior":{
					"ior":1
				}
			},
			"name":"bark",
			"pbrMetallicRoughness":{
				"metallicFactor":0.4000000059604645,
				"roughnessFactor":0.8500000238418579
			}
		},
		{
			"alphaCutoff":0.24050632119178772,
			"alphaMode":"MASK",
			"doubleSided":true,
			"extensions":{
				"KHR_materials_specular":{
					"specularFactor":0
				},
				"KHR_materials_ior":{
					"ior":1
				}
			},
			"name":"top",
			"pbrMetallicRoughness":{
				"metallicFactor":0,
				"roughnessFactor":0.5
			}
		},
		{
			"alphaCutoff":0.5,
			"alphaMode":"MASK",
			"doubleSided":true,
			"extensions":{
				"KHR_materials_specular":{
					"specularFactor":0
				},
				"KHR_materials_ior":{
					"ior":1.4500000476837158
				}
			},
			"name":"top2",
			"pbrMetallicRoughness":{
				"metallicFactor":0,
				"roughnessFactor":0.5
			}
		},
		{
			"alphaCutoff":0.5,
			"alphaMode":"MASK",
			"doubleSided":true,
			"extensions":{
				"KHR_materials_specular":{
					"specularFactor":0
				},
				"KHR_materials_ior":{
					"ior":1.4500000476837158
				}
			},
			"name":"branch1",
			"pbrMetallicRoughness":{
				"baseColorTexture":{
					"index":0
				},
				"metallicFactor":0,
				"roughnessFactor":0.5
			}
		}
	],
	"meshes":[
		{
			"name":"Cylinder",
			"primitives":[
				{
					"attributes":{
						"POSITION":0,
						"NORMAL":1,
						"TEXCOORD_0":2
					},
					"indices":3,
					"material":0
				},
				{
					"attributes":{
						"POSITION":4,
						"NORMAL":5,
						"TEXCOORD_0":6
					},
					"indices":7,
					"material":1
				},
				{
					"attributes":{
						"POSITION":8,
						"NORMAL":9,
						"TEXCOORD_0":10
					},
					"indices":11,
					"material":2
				},
				{
					"attributes":{
						"POSITION":12,
						"NORMAL":13,
						"TEXCOORD_0":14
					},
					"indices":15,
					"material":3
				}
			]
		}
	],
	"textures":[
		{
			"sampler":0,
			"source":0
		}
	],
	"images":[
		{
			"mimeType":"image/png",
			"name":"branch1",
			"uri":"../../../../../blendre/tree/branch1.png"
		}
	],
	"accessors":[
		{
			"bufferView":0,
			"componentType":5126,
			"count":68,
			"max":[
				0.9238795042037964,
				1.167587399482727,
				0.9238795042037964
			],
			"min":[
				-0.9238795042037964,
				-1,
				-0.9238795042037964
			],
			"type":"VEC3"
		},
		{
			"bufferView":1,
			"componentType":5126,
			"count":68,
			"type":"VEC3"
		},
		{
			"bufferView":2,
			"componentType":5126,
			"count":68,
			"type":"VEC2"
		},
		{
			"bufferView":3,
			"componentType":5123,
			"count":102,
			"type":"SCALAR"
		},
		{
			"bufferView":4,
			"componentType":5126,
			"count":48,
			"max":[
				1.625115156173706,
				1.209850788116455,
				1.625115156173706
			],
			"min":[
				-1.625115156173706,
				0.809402346611023,
				-1.625115156173706
			],
			"type":"VEC3"
		},
		{
			"bufferView":5,
			"componentType":5126,
			"count":48,
			"type":"VEC3"
		},
		{
			"bufferView":6,
			"componentType":5126,
			"count":48,
			"type":"VEC2"
		},
		{
			"bufferView":7,
			"componentType":5123,
			"count":72,
			"type":"SCALAR"
		},
		{
			"bufferView":8,
			"componentType":5126,
			"count":80,
			"max":[
				2.196425676345825,
				0.9347860217094421,
				2.4681172370910645
			],
			"min":[
				-2.0130155086517334,
				0.6227855682373047,
				-1.9516260623931885
			],
			"type":"VEC3"
		},
		{
			"bufferView":9,
			"componentType":5126,
			"count":80,
			"type":"VEC3"
		},
		{
			"bufferView":10,
			"componentType":5126,
			"count":80,
			"type":"VEC2"
		},
		{
			"bufferView":11,
			"componentType":5123,
			"count":120,
			"type":"SCALAR"
		},
		{
			"bufferView":12,
			"componentType":5126,
			"count":224,
			"max":[
				4.648703575134277,
				0.7121002674102783,
				5.828138828277588
			],
			"min":[
				-4.76127290725708,
				-0.0850900337100029,
				-5.228156089782715
			],
			"type":"VEC3"
		},
		{
			"bufferView":13,
			"componentType":5126,
			"count":224,
			"type":"VEC3"
		},
		{
			"bufferView":14,
			"componentType":5126,
			"count":224,
			"type":"VEC2"
		},
		{
			"bufferView":15,
			"componentType":5123,
			"count":336,
			"type":"SCALAR"
		}
	],
	"bufferViews":[
		{
			"buffer":0,
			"byteLength":816,
			"byteOffset":0,
			"target":34962
		},
		{
			"buffer":0,
			"byteLength":816,
			"byteOffset":816,
			"target":34962
		},
		{
			"buffer":0,
			"byteLength":544,
			"byteOffset":1632,
			"target":34962
		},
		{
			"buffer":0,
			"byteLength":204,
			"byteOffset":2176,
			"target":34963
		},
		{
			"buffer":0,
			"byteLength":576,
			"byteOffset":2380,
			"target":34962
		},
		{
			"buffer":0,
			"byteLength":576,
			"byteOffset":2956,
			"target":34962
		},
		{
			"buffer":0,
			"byteLength":384,
			"byteOffset":3532,
			"target":34962
		},
		{
			"buffer":0,
			"byteLength":144,
			"byteOffset":3916,
			"target":34963
		},
		{
			"buffer":0,
			"byteLength":960,
			"byteOffset":4060,
			"target":34962
		},
		{
			"buffer":0,
			"byteLength":960,
			"byteOffset":5020,
			"target":34962
		},
		{
			"buffer":0,
			"byteLength":640,
			"byteOffset":5980,
			"target":34962
		},
		{
			"buffer":0,
			"byteLength":240,
			"byteOffset":6620,
			"target":34963
		},
		{
			"buffer":0,
			"byteLength":2688,
			"byteOffset":6860,
			"target":34962
		},
		{
			"buffer":0,
			"byteLength":2688,
			"byteOffset":9548,
			"target":34962
		},
		{
			"buffer":0,
			"byteLength":1792,
			"byteOffset":12236,
			"target":34962
		},
		{
			"buffer":0,
			"byteLength":672,
			"byteOffset":14028,
			"target":34963
		}
	],
	"samplers":[
		{
			"magFilter":9728,
			"minFilter":9984
		}
	],
	"buffers":[
		{
			"byteLength":14700,
			"uri":"pine-ec86a9750fed3aa9d505d02ea59a2b96.bin"
		}
	]
}
