{
	"asset":{
		"generator":"Khronos glTF Blender I/O v4.0.44",
		"version":"2.0"
	},
	"scene":0,
	"scenes":[
		{
			"name":"Scene",
			"nodes":[
				6
			]
		}
	],
	"nodes":[
		{
			"mesh":0,
			"name":"barrel",
			"rotation":[
				-0.7071067690849304,
				0,
				0,
				0.7071067690849304
			],
			"scale":[
				1.065999984741211,
				0.6709265112876892,
				1.065999984741211
			],
			"translation":[
				0.00042264629155397415,
				4.5398250222206116e-05,
				-0.0019302666187286377
			]
		},
		{
			"children":[
				0
			],
			"name":"Bone.001",
			"translation":[
				0,
				-0.0005581937730312347,
				-0.04087751731276512
			]
		},
		{
			"mesh":1,
			"name":"trigger",
			"rotation":[
				0.7006323337554932,
				8.505855220164449e-08,
				-8.352189695415291e-08,
				0.7135224938392639
			],
			"scale":[
				1.065999984741211,
				0.6709264516830444,
				1.0659998655319214
			],
			"translation":[
				0.0004226572928018868,
				-0.009189284406602383,
				0.0461631640791893
			]
		},
		{
			"children":[
				2
			],
			"name":"Bone.002",
			"rotation":[
				-0.9999584555625916,
				-1.0865751631783382e-09,
				1.1920435838419507e-07,
				0.009114857763051987
			],
			"translation":[
				0,
				-0.010542061179876328,
				0.003180205821990967
			]
		},
		{
			"mesh":2,
			"name":"base",
			"rotation":[
				-0.7071067690849304,
				0,
				0,
				0.7071067690849304
			],
			"scale":[
				1.065999984741211,
				0.6709265112876892,
				1.065999984741211
			],
			"translation":[
				0.00042264629155397415,
				-0.0005127955228090286,
				-0.04280778393149376
			]
		},
		{
			"children":[
				1,
				3,
				4
			],
			"name":"Bone",
			"translation":[
				0,
				-0.006718579679727554,
				0.012591592967510223
			]
		},
		{
			"children":[
				5
			],
			"name":"Armature",
			"translation":[
				0,
				0.028020963072776794,
				0.037488244473934174
			]
		}
	],
	"materials":[
		{
			"doubleSided":true,
			"name":"metal",
			"pbrMetallicRoughness":{
				"baseColorTexture":{
					"index":0
				},
				"metallicFactor":0.6000000238418579,
				"roughnessFactor":0.8272727131843567
			}
		},
		{
			"doubleSided":true,
			"name":"stock",
			"pbrMetallicRoughness":{
				"baseColorTexture":{
					"index":1
				},
				"metallicFactor":0.13181817531585693,
				"roughnessFactor":0.836363673210144
			}
		},
		{
			"doubleSided":true,
			"name":"dark_metal",
			"pbrMetallicRoughness":{
				"baseColorTexture":{
					"index":2
				},
				"metallicFactor":0,
				"roughnessFactor":0.5
			}
		}
	],
	"meshes":[
		{
			"name":"Cylinder.002",
			"primitives":[
				{
					"attributes":{
						"POSITION":0,
						"NORMAL":1,
						"TEXCOORD_0":2
					},
					"indices":3,
					"material":0
				},
				{
					"attributes":{
						"POSITION":4,
						"NORMAL":5,
						"TEXCOORD_0":6
					},
					"indices":7,
					"material":1
				}
			]
		},
		{
			"name":"Cylinder.008",
			"primitives":[
				{
					"attributes":{
						"POSITION":8,
						"NORMAL":9,
						"TEXCOORD_0":10,
						"TANGENT":11
					},
					"indices":12,
					"material":2
				}
			]
		},
		{
			"name":"Cylinder.007",
			"primitives":[
				{
					"attributes":{
						"POSITION":13,
						"NORMAL":14,
						"TEXCOORD_0":15
					},
					"indices":16,
					"material":0
				},
				{
					"attributes":{
						"POSITION":17,
						"NORMAL":18,
						"TEXCOORD_0":19
					},
					"indices":20,
					"material":1
				},
				{
					"attributes":{
						"POSITION":21,
						"NORMAL":22,
						"TEXCOORD_0":23
					},
					"indices":24,
					"material":2
				}
			]
		}
	],
	"textures":[
		{
			"sampler":0,
			"source":0
		},
		{
			"sampler":1,
			"source":1
		},
		{
			"sampler":1,
			"source":2
		}
	],
	"images":[
		{
			"mimeType":"image/png",
			"name":"metal",
			"uri":"../../Assets/Meshes/SuperShotgun/textures/metal.png"
		},
		{
			"mimeType":"image/png",
			"name":"wood",
			"uri":"../../Assets/Meshes/SuperShotgun/textures/wood.png"
		},
		{
			"mimeType":"image/png",
			"name":"dark_metal.png",
			"uri":"../../Assets/Meshes/SuperShotgun/textures/dark_metal.png"
		}
	],
	"skins":[
		{
			"inverseBindMatrices":25,
			"joints":[
				5,
				1,
				3
			],
			"name":"Armature"
		}
	],
	"accessors":[
		{
			"bufferView":0,
			"componentType":5126,
			"count":240,
			"max":[
				0.01966053433716297,
				0.35280922055244446,
				0.024439407512545586
			],
			"min":[
				-0.020339472219347954,
				-0.02719072625041008,
				0.004439264535903931
			],
			"type":"VEC3"
		},
		{
			"bufferView":1,
			"componentType":5126,
			"count":240,
			"type":"VEC3"
		},
		{
			"bufferView":2,
			"componentType":5126,
			"count":240,
			"type":"VEC2"
		},
		{
			"bufferView":3,
			"componentType":5123,
			"count":480,
			"type":"SCALAR"
		},
		{
			"bufferView":4,
			"componentType":5126,
			"count":25,
			"max":[
				0.01280245091766119,
				0.20143114030361176,
				0.010978921316564083
			],
			"min":[
				-0.013593947514891624,
				-0.021662559360265732,
				-0.005632209591567516
			],
			"type":"VEC3"
		},
		{
			"bufferView":5,
			"componentType":5126,
			"count":25,
			"type":"VEC3"
		},
		{
			"bufferView":6,
			"componentType":5126,
			"count":25,
			"type":"VEC2"
		},
		{
			"bufferView":7,
			"componentType":5123,
			"count":45,
			"type":"SCALAR"
		},
		{
			"bufferView":8,
			"componentType":5126,
			"count":60,
			"max":[
				0.0005423379479907453,
				-0.06572572886943817,
				-0.007785826455801725
			],
			"min":[
				-0.0013338346034288406,
				-0.07082097232341766,
				-0.018222028389573097
			],
			"type":"VEC3"
		},
		{
			"bufferView":9,
			"componentType":5126,
			"count":60,
			"type":"VEC3"
		},
		{
			"bufferView":10,
			"componentType":5126,
			"count":60,
			"type":"VEC2"
		},
		{
			"bufferView":11,
			"componentType":5126,
			"count":60,
			"type":"VEC4"
		},
		{
			"bufferView":12,
			"componentType":5123,
			"count":108,
			"type":"SCALAR"
		},
		{
			"bufferView":13,
			"componentType":5126,
			"count":207,
			"max":[
				0.019660532474517822,
				0.005523066967725754,
				0.024439405649900436
			],
			"min":[
				-0.02045203000307083,
				-0.11345047503709793,
				-0.007739534601569176
			],
			"type":"VEC3"
		},
		{
			"bufferView":14,
			"componentType":5126,
			"count":207,
			"type":"VEC3"
		},
		{
			"bufferView":15,
			"componentType":5126,
			"count":207,
			"type":"VEC2"
		},
		{
			"bufferView":16,
			"componentType":5123,
			"count":372,
			"type":"SCALAR"
		},
		{
			"bufferView":17,
			"componentType":5126,
			"count":84,
			"max":[
				0.011584361083805561,
				-0.050990842282772064,
				0.016328424215316772
			],
			"min":[
				-0.01237585861235857,
				-0.3432919681072235,
				-0.06518703699111938
			],
			"type":"VEC3"
		},
		{
			"bufferView":18,
			"componentType":5126,
			"count":84,
			"type":"VEC3"
		},
		{
			"bufferView":19,
			"componentType":5126,
			"count":84,
			"type":"VEC2"
		},
		{
			"bufferView":20,
			"componentType":5123,
			"count":132,
			"type":"SCALAR"
		},
		{
			"bufferView":21,
			"componentType":5126,
			"count":200,
			"max":[
				0.0014804243110120296,
				-0.04884789139032364,
				0.018482379615306854
			],
			"min":[
				-0.002271920908242464,
				-0.10842650383710861,
				-0.021012481302022934
			],
			"type":"VEC3"
		},
		{
			"bufferView":22,
			"componentType":5126,
			"count":200,
			"type":"VEC3"
		},
		{
			"bufferView":23,
			"componentType":5126,
			"count":200,
			"type":"VEC2"
		},
		{
			"bufferView":24,
			"componentType":5123,
			"count":360,
			"type":"SCALAR"
		},
		{
			"bufferView":25,
			"componentType":5126,
			"count":3,
			"type":"MAT4"
		}
	],
	"bufferViews":[
		{
			"buffer":0,
			"byteLength":2880,
			"byteOffset":0,
			"target":34962
		},
		{
			"buffer":0,
			"byteLength":2880,
			"byteOffset":2880,
			"target":34962
		},
		{
			"buffer":0,
			"byteLength":1920,
			"byteOffset":5760,
			"target":34962
		},
		{
			"buffer":0,
			"byteLength":960,
			"byteOffset":7680,
			"target":34963
		},
		{
			"buffer":0,
			"byteLength":300,
			"byteOffset":8640,
			"target":34962
		},
		{
			"buffer":0,
			"byteLength":300,
			"byteOffset":8940,
			"target":34962
		},
		{
			"buffer":0,
			"byteLength":200,
			"byteOffset":9240,
			"target":34962
		},
		{
			"buffer":0,
			"byteLength":90,
			"byteOffset":9440,
			"target":34963
		},
		{
			"buffer":0,
			"byteLength":720,
			"byteOffset":9532,
			"target":34962
		},
		{
			"buffer":0,
			"byteLength":720,
			"byteOffset":10252,
			"target":34962
		},
		{
			"buffer":0,
			"byteLength":480,
			"byteOffset":10972,
			"target":34962
		},
		{
			"buffer":0,
			"byteLength":960,
			"byteOffset":11452,
			"target":34962
		},
		{
			"buffer":0,
			"byteLength":216,
			"byteOffset":12412,
			"target":34963
		},
		{
			"buffer":0,
			"byteLength":2484,
			"byteOffset":12628,
			"target":34962
		},
		{
			"buffer":0,
			"byteLength":2484,
			"byteOffset":15112,
			"target":34962
		},
		{
			"buffer":0,
			"byteLength":1656,
			"byteOffset":17596,
			"target":34962
		},
		{
			"buffer":0,
			"byteLength":744,
			"byteOffset":19252,
			"target":34963
		},
		{
			"buffer":0,
			"byteLength":1008,
			"byteOffset":19996,
			"target":34962
		},
		{
			"buffer":0,
			"byteLength":1008,
			"byteOffset":21004,
			"target":34962
		},
		{
			"buffer":0,
			"byteLength":672,
			"byteOffset":22012,
			"target":34962
		},
		{
			"buffer":0,
			"byteLength":264,
			"byteOffset":22684,
			"target":34963
		},
		{
			"buffer":0,
			"byteLength":2400,
			"byteOffset":22948,
			"target":34962
		},
		{
			"buffer":0,
			"byteLength":2400,
			"byteOffset":25348,
			"target":34962
		},
		{
			"buffer":0,
			"byteLength":1600,
			"byteOffset":27748,
			"target":34962
		},
		{
			"buffer":0,
			"byteLength":720,
			"byteOffset":29348,
			"target":34963
		},
		{
			"buffer":0,
			"byteLength":192,
			"byteOffset":30068
		}
	],
	"samplers":[
		{
			"magFilter":9728,
			"minFilter":9984,
			"wrapS":33071,
			"wrapT":33071
		},
		{
			"magFilter":9728,
			"minFilter":9984
		}
	],
	"buffers":[
		{
			"byteLength":30260,
			"uri":"shotgun-5ba88d58e71f8931ac6253d4b6ea311f.bin"
		}
	]
}
