{
	"asset":{
		"generator":"Khronos glTF Blender I/O v4.1.62",
		"version":"2.0"
	},
	"scene":0,
	"scenes":[
		{
			"name":"Scene",
			"nodes":[
				0,
				1
			]
		}
	],
	"nodes":[
		{
			"mesh":0,
			"name":"Cube",
			"translation":[
				0,
				1,
				0
			]
		},
		{
			"mesh":1,
			"name":"branch1.047",
			"rotation":[
				-0.130254328250885,
				0.6879523396492004,
				0.06800893694162369,
				0.7107251882553101
			],
			"scale":[
				0.8379291892051697,
				1.9261623620986938,
				0.8646410703659058
			],
			"translation":[
				-0.23138588666915894,
				13.761683464050293,
				-0.1089148074388504
			]
		}
	],
	"materials":[
		{
			"doubleSided":true,
			"name":"bark",
			"normalTexture":{
				"index":0
			},
			"pbrMetallicRoughness":{
				"baseColorTexture":{
					"index":1
				},
				"metallicFactor":0.10000000149011612,
				"roughnessFactor":0.5136363506317139
			}
		},
		{
			"alphaMode":"BLEND",
			"doubleSided":true,
			"name":"branch2",
			"pbrMetallicRoughness":{
				"baseColorTexture":{
					"index":2
				},
				"metallicFactor":0
			}
		},
		{
			"alphaMode":"BLEND",
			"doubleSided":true,
			"name":"branch1",
			"pbrMetallicRoughness":{
				"baseColorTexture":{
					"index":3
				},
				"metallicFactor":0
			}
		}
	],
	"meshes":[
		{
			"name":"Cube",
			"primitives":[
				{
					"attributes":{
						"POSITION":0,
						"NORMAL":1,
						"TEXCOORD_0":2
					},
					"indices":3,
					"material":0
				}
			]
		},
		{
			"name":"branch1.048",
			"primitives":[
				{
					"attributes":{
						"POSITION":4,
						"NORMAL":5,
						"TEXCOORD_0":6
					},
					"indices":7,
					"material":1
				},
				{
					"attributes":{
						"POSITION":8,
						"NORMAL":9,
						"TEXCOORD_0":10
					},
					"indices":11,
					"material":2
				}
			]
		}
	],
	"textures":[
		{
			"sampler":0,
			"source":0
		},
		{
			"sampler":0,
			"source":1
		},
		{
			"sampler":1,
			"source":2
		},
		{
			"sampler":1,
			"source":3
		}
	],
	"images":[
		{
			"mimeType":"image/png",
			"name":"bark_normal",
			"uri":"bark_normal.png"
		},
		{
			"mimeType":"image/png",
			"name":"bark",
			"uri":"bark.png"
		},
		{
			"mimeType":"image/png",
			"name":"branch2",
			"uri":"branch2.png"
		},
		{
			"mimeType":"image/png",
			"name":"branch1",
			"uri":"branch1.png"
		}
	],
	"accessors":[
		{
			"bufferView":0,
			"componentType":5126,
			"count":98,
			"max":[
				0.7766705751419067,
				12.741211891174316,
				0.7766705751419067
			],
			"min":[
				-0.7766705751419067,
				-1.5439716577529907,
				-0.7766705751419067
			],
			"type":"VEC3"
		},
		{
			"bufferView":1,
			"componentType":5126,
			"count":98,
			"type":"VEC3"
		},
		{
			"bufferView":2,
			"componentType":5126,
			"count":98,
			"type":"VEC2"
		},
		{
			"bufferView":3,
			"componentType":5123,
			"count":240,
			"type":"SCALAR"
		},
		{
			"bufferView":4,
			"componentType":5126,
			"count":408,
			"max":[
				7.514889717102051,
				0.05062568187713623,
				3.431690216064453
			],
			"min":[
				-5.901596546173096,
				-6.289388179779053,
				-9.48164176940918
			],
			"type":"VEC3"
		},
		{
			"bufferView":5,
			"componentType":5126,
			"count":408,
			"type":"VEC3"
		},
		{
			"bufferView":6,
			"componentType":5126,
			"count":408,
			"type":"VEC2"
		},
		{
			"bufferView":7,
			"componentType":5123,
			"count":1056,
			"type":"SCALAR"
		},
		{
			"bufferView":8,
			"componentType":5126,
			"count":468,
			"max":[
				8.024895668029785,
				-0.0034040489699691534,
				2.994527816772461
			],
			"min":[
				-6.243710041046143,
				-6.096624374389648,
				-9.642526626586914
			],
			"type":"VEC3"
		},
		{
			"bufferView":9,
			"componentType":5126,
			"count":468,
			"type":"VEC3"
		},
		{
			"bufferView":10,
			"componentType":5126,
			"count":468,
			"type":"VEC2"
		},
		{
			"bufferView":11,
			"componentType":5123,
			"count":1248,
			"type":"SCALAR"
		}
	],
	"bufferViews":[
		{
			"buffer":0,
			"byteLength":1176,
			"byteOffset":0,
			"target":34962
		},
		{
			"buffer":0,
			"byteLength":1176,
			"byteOffset":1176,
			"target":34962
		},
		{
			"buffer":0,
			"byteLength":784,
			"byteOffset":2352,
			"target":34962
		},
		{
			"buffer":0,
			"byteLength":480,
			"byteOffset":3136,
			"target":34963
		},
		{
			"buffer":0,
			"byteLength":4896,
			"byteOffset":3616,
			"target":34962
		},
		{
			"buffer":0,
			"byteLength":4896,
			"byteOffset":8512,
			"target":34962
		},
		{
			"buffer":0,
			"byteLength":3264,
			"byteOffset":13408,
			"target":34962
		},
		{
			"buffer":0,
			"byteLength":2112,
			"byteOffset":16672,
			"target":34963
		},
		{
			"buffer":0,
			"byteLength":5616,
			"byteOffset":18784,
			"target":34962
		},
		{
			"buffer":0,
			"byteLength":5616,
			"byteOffset":24400,
			"target":34962
		},
		{
			"buffer":0,
			"byteLength":3744,
			"byteOffset":30016,
			"target":34962
		},
		{
			"buffer":0,
			"byteLength":2496,
			"byteOffset":33760,
			"target":34963
		}
	],
	"samplers":[
		{
			"magFilter":9728,
			"minFilter":9984
		},
		{
			"magFilter":9728,
			"minFilter":9984,
			"wrapS":33071,
			"wrapT":33071
		}
	],
	"buffers":[
		{
			"byteLength":36256,
			"uri":"pinetree.bin"
		}
	]
}
