{
	"asset":{
		"generator":"Khronos glTF Blender I/O v4.0.44",
		"version":"2.0"
	},
	"scene":0,
	"scenes":[
		{
			"name":"Scene",
			"nodes":[
				6
			]
		}
	],
	"nodes":[
		{
			"mesh":0,
			"name":"barrel",
			"scale":[
				1.065999984741211,
				0.6709265112876892,
				1.065999984741211
			],
			"translation":[
				0.00042264629155397415,
				4.5398250222206116e-05,
				-0.0019302703440189362
			]
		},
		{
			"children":[
				0
			],
			"name":"Bone.001",
			"translation":[
				0,
				-0.0005581937730312347,
				-0.04087751731276512
			]
		},
		{
			"mesh":1,
			"name":"trigger",
			"rotation":[
				0.7006322741508484,
				8.505855930707185e-08,
				-8.352189695415291e-08,
				0.7135225534439087
			],
			"scale":[
				1.065999984741211,
				0.6709264516830444,
				1.0659998655319214
			],
			"translation":[
				1.5938930730818868e-10,
				-0.0014308060053735971,
				0.0005772129516117275
			]
		},
		{
			"children":[
				2
			],
			"name":"Bone.002",
			"rotation":[
				-0.9999584555625916,
				-1.086580159181949e-09,
				1.1920437259504979e-07,
				0.009114899672567844
			],
			"scale":[
				1,
				1,
				0.9999999403953552
			],
			"translation":[
				0,
				-0.010542061179876328,
				0.0031802020967006683
			]
		},
		{
			"mesh":2,
			"name":"base",
			"rotation":[
				-0.7071067690849304,
				0,
				0,
				0.7071067690849304
			],
			"scale":[
				1.065999984741211,
				0.6709265112876892,
				1.065999984741211
			],
			"translation":[
				0.00042264629155397415,
				-0.0005127955228090286,
				-0.04280778765678406
			]
		},
		{
			"children":[
				1,
				3,
				4
			],
			"name":"Bone",
			"translation":[
				0,
				0.00910096988081932,
				-0.0026291683316230774
			]
		},
		{
			"children":[
				5
			],
			"name":"Armature",
			"translation":[
				0,
				0.01220141351222992,
				0.05270900949835777
			]
		}
	],
	"materials":[
		{
			"doubleSided":true,
			"name":"metal",
			"pbrMetallicRoughness":{
				"baseColorTexture":{
					"index":0
				},
				"metallicFactor":0.6000000238418579,
				"roughnessFactor":0.8272727131843567
			}
		},
		{
			"doubleSided":true,
			"name":"stock",
			"pbrMetallicRoughness":{
				"baseColorTexture":{
					"index":1
				},
				"metallicFactor":0.13181817531585693,
				"roughnessFactor":0.836363673210144
			}
		},
		{
			"doubleSided":true,
			"name":"dark_metal",
			"pbrMetallicRoughness":{
				"baseColorTexture":{
					"index":2
				},
				"metallicFactor":0,
				"roughnessFactor":0.5
			}
		}
	],
	"meshes":[
		{
			"name":"Cylinder.002",
			"primitives":[
				{
					"attributes":{
						"POSITION":0,
						"NORMAL":1,
						"TEXCOORD_0":2
					},
					"indices":3,
					"material":0
				},
				{
					"attributes":{
						"POSITION":4,
						"NORMAL":5,
						"TEXCOORD_0":6
					},
					"indices":7,
					"material":1
				}
			]
		},
		{
			"name":"Cylinder.008",
			"primitives":[
				{
					"attributes":{
						"POSITION":8,
						"NORMAL":9,
						"TEXCOORD_0":10
					},
					"indices":11,
					"material":2
				}
			]
		},
		{
			"name":"Cylinder.007",
			"primitives":[
				{
					"attributes":{
						"POSITION":12,
						"NORMAL":13,
						"TEXCOORD_0":14
					},
					"indices":15,
					"material":0
				},
				{
					"attributes":{
						"POSITION":16,
						"NORMAL":17,
						"TEXCOORD_0":18
					},
					"indices":19,
					"material":1
				},
				{
					"attributes":{
						"POSITION":20,
						"NORMAL":21,
						"TEXCOORD_0":22
					},
					"indices":23,
					"material":2
				}
			]
		}
	],
	"textures":[
		{
			"sampler":0,
			"source":0
		},
		{
			"sampler":1,
			"source":1
		},
		{
			"sampler":1,
			"source":2
		}
	],
	"images":[
		{
			"mimeType":"image/png",
			"name":"metal",
			"uri":"metal.png"
		},
		{
			"mimeType":"image/png",
			"name":"wood",
			"uri":"wood.png"
		},
		{
			"mimeType":"image/png",
			"name":"dark_metal",
			"uri":"dark_metal.png"
		}
	],
	"skins":[
		{
			"inverseBindMatrices":24,
			"joints":[
				5,
				1,
				3
			],
			"name":"Armature"
		}
	],
	"accessors":[
		{
			"bufferView":0,
			"componentType":5126,
			"count":232,
			"max":[
				0.019660532474517822,
				0.03883048892021179,
				0.017113490030169487
			],
			"min":[
				-0.020339470356702805,
				0.0070533244870603085,
				-0.22205352783203125
			],
			"type":"VEC3"
		},
		{
			"bufferView":1,
			"componentType":5126,
			"count":232,
			"type":"VEC3"
		},
		{
			"bufferView":2,
			"componentType":5126,
			"count":232,
			"type":"VEC2"
		},
		{
			"bufferView":3,
			"componentType":5123,
			"count":480,
			"type":"SCALAR"
		},
		{
			"bufferView":4,
			"componentType":5126,
			"count":25,
			"max":[
				0.012802449986338615,
				0.01744384691119194,
				0.013634132221341133
			],
			"min":[
				-0.01359394658356905,
				-0.008948723785579205,
				-0.12677814066410065
			],
			"type":"VEC3"
		},
		{
			"bufferView":5,
			"componentType":5126,
			"count":25,
			"type":"VEC3"
		},
		{
			"bufferView":6,
			"componentType":5126,
			"count":25,
			"type":"VEC2"
		},
		{
			"bufferView":7,
			"componentType":5123,
			"count":45,
			"type":"SCALAR"
		},
		{
			"bufferView":8,
			"componentType":5126,
			"count":60,
			"max":[
				0.0009388166363351047,
				0.0019969642162323,
				0.00027061672881245613
			],
			"min":[
				-0.0009373559150844812,
				-0.0030982792377471924,
				-0.010165585204958916
			],
			"type":"VEC3"
		},
		{
			"bufferView":9,
			"componentType":5126,
			"count":60,
			"type":"VEC3"
		},
		{
			"bufferView":10,
			"componentType":5126,
			"count":60,
			"type":"VEC2"
		},
		{
			"bufferView":11,
			"componentType":5123,
			"count":108,
			"type":"SCALAR"
		},
		{
			"bufferView":12,
			"componentType":5126,
			"count":207,
			"max":[
				0.019660532474517822,
				0.005523066967725754,
				0.024439405649900436
			],
			"min":[
				-0.02045203000307083,
				-0.11345047503709793,
				-0.007739534601569176
			],
			"type":"VEC3"
		},
		{
			"bufferView":13,
			"componentType":5126,
			"count":207,
			"type":"VEC3"
		},
		{
			"bufferView":14,
			"componentType":5126,
			"count":207,
			"type":"VEC2"
		},
		{
			"bufferView":15,
			"componentType":5123,
			"count":372,
			"type":"SCALAR"
		},
		{
			"bufferView":16,
			"componentType":5126,
			"count":84,
			"max":[
				0.011584361083805561,
				-0.050990842282772064,
				0.016328424215316772
			],
			"min":[
				-0.01237585861235857,
				-0.3432919681072235,
				-0.06518703699111938
			],
			"type":"VEC3"
		},
		{
			"bufferView":17,
			"componentType":5126,
			"count":84,
			"type":"VEC3"
		},
		{
			"bufferView":18,
			"componentType":5126,
			"count":84,
			"type":"VEC2"
		},
		{
			"bufferView":19,
			"componentType":5123,
			"count":132,
			"type":"SCALAR"
		},
		{
			"bufferView":20,
			"componentType":5126,
			"count":200,
			"max":[
				0.0014804243110120296,
				-0.04884789139032364,
				0.018482379615306854
			],
			"min":[
				-0.002271920908242464,
				-0.10842650383710861,
				-0.021012481302022934
			],
			"type":"VEC3"
		},
		{
			"bufferView":21,
			"componentType":5126,
			"count":200,
			"type":"VEC3"
		},
		{
			"bufferView":22,
			"componentType":5126,
			"count":200,
			"type":"VEC2"
		},
		{
			"bufferView":23,
			"componentType":5123,
			"count":360,
			"type":"SCALAR"
		},
		{
			"bufferView":24,
			"componentType":5126,
			"count":3,
			"type":"MAT4"
		}
	],
	"bufferViews":[
		{
			"buffer":0,
			"byteLength":2784,
			"byteOffset":0,
			"target":34962
		},
		{
			"buffer":0,
			"byteLength":2784,
			"byteOffset":2784,
			"target":34962
		},
		{
			"buffer":0,
			"byteLength":1856,
			"byteOffset":5568,
			"target":34962
		},
		{
			"buffer":0,
			"byteLength":960,
			"byteOffset":7424,
			"target":34963
		},
		{
			"buffer":0,
			"byteLength":300,
			"byteOffset":8384,
			"target":34962
		},
		{
			"buffer":0,
			"byteLength":300,
			"byteOffset":8684,
			"target":34962
		},
		{
			"buffer":0,
			"byteLength":200,
			"byteOffset":8984,
			"target":34962
		},
		{
			"buffer":0,
			"byteLength":90,
			"byteOffset":9184,
			"target":34963
		},
		{
			"buffer":0,
			"byteLength":720,
			"byteOffset":9276,
			"target":34962
		},
		{
			"buffer":0,
			"byteLength":720,
			"byteOffset":9996,
			"target":34962
		},
		{
			"buffer":0,
			"byteLength":480,
			"byteOffset":10716,
			"target":34962
		},
		{
			"buffer":0,
			"byteLength":216,
			"byteOffset":11196,
			"target":34963
		},
		{
			"buffer":0,
			"byteLength":2484,
			"byteOffset":11412,
			"target":34962
		},
		{
			"buffer":0,
			"byteLength":2484,
			"byteOffset":13896,
			"target":34962
		},
		{
			"buffer":0,
			"byteLength":1656,
			"byteOffset":16380,
			"target":34962
		},
		{
			"buffer":0,
			"byteLength":744,
			"byteOffset":18036,
			"target":34963
		},
		{
			"buffer":0,
			"byteLength":1008,
			"byteOffset":18780,
			"target":34962
		},
		{
			"buffer":0,
			"byteLength":1008,
			"byteOffset":19788,
			"target":34962
		},
		{
			"buffer":0,
			"byteLength":672,
			"byteOffset":20796,
			"target":34962
		},
		{
			"buffer":0,
			"byteLength":264,
			"byteOffset":21468,
			"target":34963
		},
		{
			"buffer":0,
			"byteLength":2400,
			"byteOffset":21732,
			"target":34962
		},
		{
			"buffer":0,
			"byteLength":2400,
			"byteOffset":24132,
			"target":34962
		},
		{
			"buffer":0,
			"byteLength":1600,
			"byteOffset":26532,
			"target":34962
		},
		{
			"buffer":0,
			"byteLength":720,
			"byteOffset":28132,
			"target":34963
		},
		{
			"buffer":0,
			"byteLength":192,
			"byteOffset":28852
		}
	],
	"samplers":[
		{
			"magFilter":9728,
			"minFilter":9984,
			"wrapS":33071,
			"wrapT":33071
		},
		{
			"magFilter":9728,
			"minFilter":9984
		}
	],
	"buffers":[
		{
			"byteLength":29044,
			"uri":"shotgun.bin"
		}
	]
}
